<svg id="Layer_2" enable-background="new 0 0 64 64" height="512" viewBox="0 0 64 64" width="512" xmlns="http://www.w3.org/2000/svg"><g><g><g><path d="m32 7c0 1.66-1.34 3-3 3-.16 0-.31-.01-.46-.03l-.01.01c-.34-.59-.53-1.26-.53-1.98 0-1.1.45-2.1 1.17-2.83.35-.35.77-.63 1.23-.83.95.51 1.6 1.5 1.6 2.66z" fill="#ef7385"/></g><g><path d="m29 10c1.66 0 3-1.34 3-3 0-1.16-.65-2.15-1.6-2.66.49-.22 1.03-.34 1.6-.34 1.1 0 2.1.45 2.83 1.17.72.73 1.17 1.73 1.17 2.83s-.45 2.1-1.17 2.83c-.73.72-1.73 1.17-2.83 1.17s-2.1-.45-2.83-1.17c-.25-.25-.47-.54-.64-.85l.01-.01c.15.02.3.03.46.03z" fill="#ed5565"/></g><g><path d="m6.37 19.58c-.24-.66-.37-1.36-.37-2.08 0-1.6.64-3.14 1.77-4.27l.23-.23c.96.96 2.09 1.71 3.32 2.22 1.24.51 2.56.78 3.92.78h2.92c2.19 0 4.21.71 5.84 1.92-.4.29-.77.61-1.12.96-1.77 1.77-2.86 4.2-2.88 6.9l-7.61-1.69c-.26-.06-.52-.09-.79-.09-1.99 0-3.6 1.61-3.6 3.6v2.4h-1c-.57 0-1.11.16-1.56.44l-.99-.99c-1.57-1.57-2.45-3.7-2.45-5.92 0-1.65.49-3.26 1.41-4.64l.59-.89z" fill="#fcd770"/></g><g><path d="m61.92 37.42c.05.39.08.77.08 1.16 0 1.38-.34 2.73-.95 3.93-.62 1.2-1.51 2.25-2.64 3.06l-2.32 1.65-.01.01c-.57-.41-1.18-.78-1.82-1.1l-.78-.39c-.24-.12-.47-.26-.68-.43-.61-.48-1.07-1.13-1.32-1.88l-.51-1.51c.36-.06.7-.14 1.03-.26v-.01c2.33-.81 4-3.04 4-5.65v-2-4c0-.55-.22-1.05-.59-1.41-.36-.37-.86-.59-1.41-.59-3.23 0-6.36-1.13-8.84-3.2l-1.41-1.17c-.47-2.07-1.6-3.89-3.15-5.23 2.09-1.52 4.65-2.4 7.4-2.4 3.15 0 6.06 1.16 8.28 3.11 2.23 1.94 3.78 4.67 4.21 7.79z" fill="#fcd770"/></g><g><path d="m52 36v5.65.01c-.33.12-.67.2-1.03.26-.31.05-.64.08-.97.08h-4c-.33 0-.66-.03-.97-.08-.36-.06-.7-.14-1.03-.26v-.01-5.65z" fill="#5cd6b3"/></g><g><path d="m52.8 45.31-.14.19c-.52.78-1.22 1.4-2.02 1.84-.8.42-1.7.66-2.64.66-1.87 0-3.62-.94-4.66-2.5l-.14-.19c.61-.48 1.07-1.13 1.32-1.88l.51-1.51c.31.05.64.08.97.08h4c.33 0 .66-.03.97-.08l.51 1.51c.25.75.71 1.4 1.32 1.88z" fill="#f0d0b4"/></g><g><path d="m41.74 46.13.78-.39c.24-.12.47-.26.68-.43l.14.19c1.04 1.56 2.79 2.5 4.66 2.5.94 0 1.84-.24 2.64-.66.8-.44 1.5-1.06 2.02-1.84l.14-.19c.21.17.44.31.68.43l.78.39c.64.32 1.25.69 1.82 1.1 3.5 2.46 5.7 6.44 5.9 10.77h-5.98v4h-10v-3.35c0-.22-.01-.43-.02-.65-.2-4.37-2.43-8.36-5.98-10.84.55-.38 1.13-.72 1.74-1.03z" fill="#ef7385"/></g><g><path d="m8 58h-5.98c.22-4.83 2.93-9.21 7.15-11.56l1.83 4.56 5-3 4.48 2.69c-1.46 2.13-2.34 4.65-2.46 7.31-.01.22-.02.43-.02.65v3.35h-10z" fill="#5cd6b3"/></g><g><path d="m22.26 46.13c.61.31 1.19.65 1.74 1.03-1.39.97-2.57 2.17-3.52 3.53l-4.48-2.69 4.67-2.8c.24.21.52.39.81.54z" fill="#ef7385"/></g><g><path d="m16 48-5 3-1.83-4.56c.18-.11.38-.21.57-.31l.78-.39c.29-.15.57-.33.81-.54z" fill="#ef7385"/></g><g><path d="m20.67 45.2-4.67 2.8-4.67-2.8c.55-.47.96-1.08 1.19-1.77l.51-1.51c.31.05.64.08.97.08h4c.33 0 .66-.03.97-.08l.51 1.51c.23.69.64 1.3 1.19 1.77z" fill="#f0d0b4"/></g><g><path d="m25.74 46.13.78-.39c.24-.12.47-.26.68-.43l.14.19c1.04 1.56 2.79 2.5 4.66 2.5.94 0 1.84-.24 2.64-.66.8-.44 1.5-1.06 2.02-1.84l.14-.19c.21.17.44.31.68.43l.78.39c.61.31 1.19.65 1.74 1.03 3.55 2.48 5.78 6.47 5.98 10.84h-5.98v4h-16v-4h-5.98c.12-2.66 1-5.18 2.46-7.31.95-1.36 2.13-2.56 3.52-3.53.55-.38 1.13-.72 1.74-1.03z" fill="#fcd770"/></g><g><path d="m8 58v4h-6v-3.35c0-.22.01-.43.02-.65z" fill="#f0d0b4"/></g><g><path d="m62 58.65v3.35h-6v-4h5.98c.01.22.02.43.02.65z" fill="#f0d0b4"/></g><g><path d="m46 58.65v3.35h-6v-4h5.98c.01.22.02.43.02.65z" fill="#f0d0b4"/></g><g><path d="m24 58v4h-6v-3.35c0-.22.01-.43.02-.65z" fill="#f0d0b4"/></g><g><path d="m36.8 45.31-.14.19c-.52.78-1.22 1.4-2.02 1.84-.8.42-1.7.66-2.64.66-1.87 0-3.62-.94-4.66-2.5l-.14-.19c.61-.48 1.07-1.13 1.32-1.88l.51-1.51c.31.05.64.08.97.08h4c.33 0 .66-.03.97-.08l.51 1.51c.25.75.71 1.4 1.32 1.88z" fill="#f0d0b4"/></g><g><g><path d="m55.41 28.59c-.36-.37-.86-.59-1.41-.59-3.23 0-6.36-1.13-8.84-3.2l-1.41-1.17c.16.71.25 1.45.25 2.21 0 1.76-.24 3.52-.71 5.22-.55-.65-1.37-1.06-2.29-1.06h-1v6c0 2.61 1.67 4.84 4 5.65v-5.65h8v5.65c2.33-.81 4-3.04 4-5.65v-2-4c0-.55-.22-1.05-.59-1.41z" fill="#f0d0b4"/></g><g><path d="m20.71 31.06c-.47-1.7-.71-3.46-.71-5.22 0-.02 0-.04 0-.06l-7.61-1.69c-.26-.06-.52-.09-.79-.09-1.99 0-3.6 1.61-3.6 3.6v2.4h-1c-.57 0-1.11.16-1.56.44-.87.52-1.44 1.47-1.44 2.56 0 .83.34 1.58.88 2.12s1.29.88 2.12.88h1c0 2.98 2.18 5.46 5.03 5.92.31.05.64.08.97.08h4c.33 0 .66-.03.97-.08 2.85-.46 5.03-2.94 5.03-5.92v-6h-1c-.92 0-1.74.41-2.29 1.06z" fill="#f0d0b4"/></g></g><g><g><path d="m43.75 23.63c-.47-2.07-1.6-3.89-3.15-5.23-1.72-1.5-3.98-2.4-6.44-2.4h-2.16-2.16c-2.19 0-4.21.71-5.84 1.92-.4.29-.77.61-1.12.96-1.77 1.77-2.86 4.2-2.88 6.9v.06c0 1.76.24 3.52.71 5.22.55-.65 1.37-1.06 2.29-1.06h1 16 1c.92 0 1.74.41 2.29 1.06.47-1.7.71-3.46.71-5.22 0-.76-.09-1.5-.25-2.21z" fill="#b27946"/></g></g><g><path d="m37 24h-9c-2.209 0-4 1.791-4 4v8c0 3.314 2.686 6 6 6h4c3.314 0 6-2.686 6-6v-9c0-1.657-1.343-3-3-3z" fill="#f0d0b4"/></g></g><path d="m35 21.172h2v5.657h-2z" transform="matrix(.707 -.707 .707 .707 -6.426 32.485)"/><path d="m30 21.172h2v5.657h-2z" transform="matrix(.707 -.707 .707 .707 -7.891 28.95)"/><path d="m17 3h8v-2h-8c-1.654 0-3 1.346-3 3v5l-2.4-1.8-1.2 1.6 4.6 3.45 4.6-3.45-1.2-1.6-2.4 1.8v-5c0-.552.449-1 1-1z"/><circle cx="12" cy="30" r="1"/><path d="m47 1h-8v2h8c.551 0 1 .448 1 1v5l-2.4-1.8-1.2 1.6 4.6 3.45 4.6-3.45-1.2-1.6-2.4 1.8v-5c0-1.654-1.346-3-3-3z"/><path d="m19.789 36.658.105-.211-1.789-.895-.105.212c-.381.762-1.147 1.236-2 1.236s-1.619-.474-2-1.236l-.105-.211-1.789.895.105.211c.722 1.444 2.174 2.341 3.789 2.341s3.067-.897 3.789-2.342z"/><path d="m30.414 30-2.707-2.707-1.414 1.414 1.293 1.293-1.293 1.293 1.414 1.414z"/><path d="m36.293 27.293-2.707 2.707 2.707 2.707 1.414-1.414-1.293-1.293 1.293-1.293z"/><path d="m36.101 36.359c-.452-.541-1.134-1.359-2.436-1.359s-1.984.818-2.436 1.359c-.403.485-.562.641-.899.641-.321 0-.471-.129-.896-.64-.451-.542-1.133-1.36-2.434-1.36v2c.321 0 .471.129.896.64.451.542 1.133 1.36 2.434 1.36 1.302 0 1.984-.818 2.436-1.359.403-.485.562-.641.899-.641s.496.156.899.641c.452.541 1.134 1.359 2.436 1.359v-2c-.337 0-.496-.156-.899-.641z"/><circle cx="52" cy="32" r="1"/><path d="m63 38.583c0-.431-.029-.866-.088-1.295l-1.436-10.525c-.914-6.706-6.706-11.763-13.477-11.763-2.635 0-5.16.753-7.357 2.171-1.811-1.357-4.049-2.171-6.48-2.171h-1.162v-2.101c.637-.13 1.229-.384 1.753-.732l1.54 1.54 1.414-1.414-1.54-1.54c.348-.524.602-1.116.732-1.753h2.101v-2h-2.101c-.13-.637-.384-1.228-.732-1.753l1.54-1.54-1.414-1.414-1.54 1.54c-.524-.348-1.116-.602-1.753-.732v-2.101h-2v2.101c-.637.13-1.229.384-1.753.732l-1.54-1.54-1.414 1.414 1.54 1.54c-.348.525-.602 1.116-.732 1.753h-2.101v2h2.101c.13.637.384 1.228.732 1.753l-1.54 1.54 1.414 1.414 1.54-1.54c.525.348 1.116.602 1.753.732v2.101h-1.162c-2.147 0-4.144.635-5.83 1.716-1.744-1.121-3.749-1.716-5.846-1.716h-2.919c-2.469 0-4.79-.961-6.536-2.707l-.707-.707-.939.939c-1.32 1.321-2.05 3.074-2.059 4.94l-1.279-.853-1.15 1.724c-1.029 1.546-1.573 3.343-1.573 5.198 0 2.502.975 4.854 2.744 6.624l.241.242c-.605.701-.985 1.603-.985 2.6 0 2.206 1.794 4 4 4h.08c.378 2.625 2.213 4.78 4.66 5.618l-.164.493c-.253.761-.788 1.377-1.504 1.735l-.779.39c-5.116 2.557-8.293 7.698-8.293 13.416v4.348h62v-4.348c0-4.473-1.95-8.586-5.245-11.392l1.231-.879c2.514-1.795 4.014-4.71 4.014-7.798zm-28-30.583c0 1.654-1.346 3-3 3-.499 0-.963-.134-1.378-.351 1.398-.624 2.378-2.021 2.378-3.649 0-.699-.186-1.365-.514-1.951 1.423.234 2.514 1.463 2.514 2.951zm-4.674-2.488c.421.374.674.908.674 1.488 0 1.041-.803 1.89-1.821 1.982-.108-.309-.179-.636-.179-.982 0-1.035.527-1.949 1.326-2.488zm3.836 11.488c4.873 0 8.838 3.965 8.838 8.838 0 1.186-.12 2.367-.346 3.53-.506-.231-1.063-.368-1.654-.368v-2h-2v9c0 2.757-2.243 5-5 5h-4c-2.757 0-5-2.243-5-5v-8c0-1.654 1.346-3 3-3v-2c-2.757 0-5 2.243-5 5v1c-.591 0-1.148.137-1.654.368-.226-1.163-.346-2.345-.346-3.53 0-4.873 3.965-8.838 8.838-8.838zm19.838 12c.551 0 1 .448 1 1v3.382l-3.236 1.618h-7.32c.344-.591.556-1.268.556-2 0-.791-.238-1.524-.635-2.145.407-1.611.624-3.263.632-4.924 2.578 1.976 5.746 3.069 9.003 3.069zm-3.473 14.744c.208.624.532 1.188.947 1.673-.868 1-2.129 1.583-3.474 1.583-1.346 0-2.606-.583-3.474-1.583.415-.485.739-1.049.947-1.673l.253-.758c.091.004.181.014.274.014h4c.093 0 .183-.01.275-.014zm-9.527 15.256h4v2h-4zm0-2v-2h-2v6h-14v-6h-2v2h-3.892c.538-4.278 3.145-8.008 7.078-9.975l.763-.381c1.247 1.485 3.084 2.356 5.051 2.356 1.966 0 3.804-.871 5.051-2.356l.763.381c3.933 1.966 6.539 5.697 7.078 9.975zm-22 2h4v2h-4zm-7.636-12.615 2.692 1.615-2.564 1.538-1.055-2.638.529-.264c.142-.071.265-.168.398-.251zm11.636-15.385v4c-1.103 0-2-.897-2-2s.897-2 2-2zm1 8.587c.844 1.406 2.164 2.492 3.74 3.032l-.164.493c-.253.761-.788 1.377-1.504 1.735l-.779.39c-.448.224-.876.475-1.293.737-.42-.264-.848-.516-1.29-.737l-.779-.39c-.717-.358-1.251-.975-1.504-1.735l-.164-.493c1.573-.541 2.893-1.626 3.737-3.032zm10.275 3.399.253.758c.208.624.532 1.188.947 1.673-.869 1-2.13 1.583-3.475 1.583-1.346 0-2.606-.583-3.474-1.583.415-.485.739-1.049.947-1.673l.253-.758c.091.004.181.014.274.014h4c.093 0 .183-.01.275-.014zm-13.64 3.399c.134.083.257.18.4.251l.779.39c.146.073.287.156.43.235-.748.637-1.427 1.341-2.029 2.102l-2.272-1.363zm19.367-.412c-.418-.262-.845-.513-1.293-.737l-.779-.39c-.717-.358-1.251-.975-1.504-1.735l-.164-.493c1.576-.54 2.896-1.625 3.74-3.032.844 1.406 2.164 2.492 3.74 3.032l-.164.493c-.253.761-.788 1.377-1.504 1.735l-.779.39c-.445.221-.874.473-1.293.737zm.998-14.973c1.103 0 2 .897 2 2s-.897 2-2 2zm10 9.899c-.323.066-.658.101-1 .101h-4c-.342 0-.677-.035-1-.101v-3.899h6zm-9.9-3.909c.626-.016 1.209-.183 1.733-.455l.167.083v3.356c-.956-.723-1.654-1.767-1.9-2.984zm11.9-.372 2-1v.382c0 1.627-.793 3.061-2 3.974zm-48-3.618c0-1.103.897-2 2-2v4c-1.103 0-2-.897-2-2zm2-5.396v1.396c-.472 0-.918.097-1.339.247l-.503-.503c-1.391-1.391-2.158-3.242-2.158-5.21 0-1.459.428-2.873 1.237-4.088l.04-.06 1.276.851c.349.825.855 1.584 1.508 2.237l.232.232 1.414-1.414-.232-.232c-.951-.951-1.475-2.215-1.475-3.56 0-1.135.373-2.212 1.06-3.092 2.014 1.678 4.528 2.592 7.183 2.592h2.919c1.472 0 2.886.365 4.159 1.048-1.752 1.691-2.935 3.961-3.237 6.502l-6.479-1.439c-.326-.073-.663-.11-1-.11-2.54-.001-4.605 2.064-4.605 4.603zm2 8.396v-8.396c0-1.436 1.168-2.604 2.604-2.604.191 0 .38.021.565.062l6.856 1.523c.053 1.441.256 2.871.61 4.27-.397.621-.635 1.354-.635 2.145 0 2.172 1.741 3.935 3.9 3.99-.461 2.284-2.482 4.01-4.9 4.01h-4c-2.757 0-5-2.243-5-5zm5 7h4c.093 0 .183-.01.275-.014l.253.758c.146.437.365.832.615 1.204l-3.143 1.886-3.143-1.886c.25-.372.47-.767.616-1.204l.253-.758c.091.004.181.014.274.014zm-5.315 4.906 1.822 4.556 5.493-3.296 3.081 1.849c-1.337 2.263-2.081 4.881-2.081 7.637v2.348h-8v-6h-2v2h-3.892c.467-3.707 2.487-7.001 5.577-9.094zm-5.685 11.094h4v2h-4zm54 2v-2h4v2zm3.892-4h-3.892v-2h-2v6h-8v-2.348c0-4.473-1.95-8.586-5.244-11.392.143-.079.285-.162.43-.235l.763-.381c1.247 1.485 3.084 2.356 5.051 2.356s3.805-.871 5.051-2.356l.763.381c3.933 1.967 6.539 5.697 7.078 9.975zm-3.068-12.246-1.761 1.258c-.436-.277-.884-.541-1.354-.776l-.779-.39c-.717-.358-1.251-.975-1.504-1.735l-.164-.493c2.751-.943 4.738-3.55 4.738-6.618v-6c0-1.654-1.346-3-3-3-2.991 0-5.903-1.055-8.201-2.97l-1.176-.98c-.451-1.692-1.3-3.219-2.444-4.479 1.765-1.027 3.753-1.571 5.822-1.571 5.773 0 10.714 4.313 11.494 10.032l1.436 10.525c.046.34.069.685.069 1.026 0 2.443-1.188 4.75-3.176 6.171z"/></g></svg>