<svg id="Layer_5" enable-background="new 0 0 64 64" height="512" viewBox="0 0 64 64" width="512" xmlns="http://www.w3.org/2000/svg"><g><g><g><path d="m60 26v30h-6v-12-6-9-3z" fill="#cf9e76"/></g><g><path d="m54 38v6h-4-8-8-8-1-12-3v-6h4 8 8 4 1 12z" fill="#cf9e76"/></g><g><path d="m10 47v9h-6v-30h6v12 6z" fill="#cf9e76"/></g><g><path d="m62 58v4h-60v-4c0-1.1.9-2 2-2h6 7 12 1 4 8 8 4 6c1.1 0 2 .9 2 2z" fill="#b27946"/></g><g><path d="m50 35c0-.83-.34-1.58-.88-2.12s-1.29-.88-2.12-.88h4c1.66 0 3-1.34 3-3v9h-7c1.66 0 3-1.34 3-3z" fill="#e6e9ed"/></g><g><path d="m35 32c1.66 0 3 1.34 3 3 0 .83-.34 1.58-.88 2.12s-1.29.88-2.12.88h-1-4v-12h8 1c1.66 0 3 1.34 3 3 0 .83-.34 1.58-.88 2.12s-1.29.88-2.12.88h-1z" fill="#e6e9ed"/></g><g><path d="m10 26h4v12h-4z" fill="#e6e9ed"/></g><g><path d="m10 56v-9c0 1.66 1.34 3 3 3h4c-.83 0-1.58.34-2.12.88s-.88 1.29-.88 2.12c0 1.66 1.34 3 3 3z" fill="#e6e9ed"/></g><g><path d="m34 44v12h-4-1c-.83 0-1.58-.34-2.12-.88s-.88-1.29-.88-2.12c0-1.66 1.34-3 3-3h-3-1c-.83 0-1.58-.34-2.12-.88s-.88-1.29-.88-2.12c0-1.66 1.34-3 3-3h1z" fill="#e6e9ed"/></g><g><path d="m50 44h4v12h-4z" fill="#e6e9ed"/></g><g><path d="m42 44h8v12h-8z" fill="#b4dd7f"/></g><g><path d="m34 44h8v12h-8z" fill="#b4dd7f"/></g><g><path d="m22 26h8v12h-8z" fill="#ff826e"/></g><g><path d="m14 26h8v12h-8z" fill="#ff826e"/></g><g><path d="m29 50c-1.66 0-3 1.34-3 3 0 .83.34 1.58.88 2.12s1.29.88 2.12.88h-12c-1.66 0-3-1.34-3-3 0-.83.34-1.58.88-2.12s1.29-.88 2.12-.88h8 1z" fill="#ff826e"/></g><g><path d="m22 47c0 .83.34 1.58.88 2.12s1.29.88 2.12.88h-8-4c-1.66 0-3-1.34-3-3 0-.83.34-1.58.88-2.12s1.29-.88 2.12-.88h12c-1.66 0-3 1.34-3 3z" fill="#ff826e"/></g><g><path d="m42 29c0-1.66-1.34-3-3-3h12c.83 0 1.58.34 2.12.88s.88 1.29.88 2.12c0 1.66-1.34 3-3 3h-4-8c.83 0 1.58-.34 2.12-.88s.88-1.29.88-2.12z" fill="#b4dd7f"/></g><g><path d="m39 32h8c.83 0 1.58.34 2.12.88s.88 1.29.88 2.12c0 1.66-1.34 3-3 3h-12c.83 0 1.58-.34 2.12-.88s.88-1.29.88-2.12c0-1.66-1.34-3-3-3h3z" fill="#b4dd7f"/></g><g><path d="m35.63 3.16c-1.06-.75-2.33-1.16-3.63-1.16s-2.57.41-3.63 1.16l-26.37 18.84v4h2 6 4 8 8 8 1 12 3 6 2v-4z" fill="#fcd770"/></g><g><path d="m55.12 22h-46.24l21.82-15.58c.38-.27.83-.42 1.3-.42s.92.15 1.3.42z" fill="#ffeaa7"/></g><g><circle cx="32" cy="15" fill="#e6e9ed" r="3"/></g></g><g><path d="m28 15c0 2.206 1.794 4 4 4s4-1.794 4-4-1.794-4-4-4-4 1.794-4 4zm6 0c0 1.103-.897 2-2 2s-2-.897-2-2 .897-2 2-2 2 .897 2 2z"/><path d="m63 27v-5.515l-26.791-19.136c-2.471-1.766-5.947-1.766-8.418 0l-26.791 19.136v5.515h2v28.184c-1.161.414-2 1.514-2 2.816v5h62v-5c0-1.302-.839-2.402-2-2.816v-28.184zm-12-2h-12-1-35v-2h58v2zm0 30v-10h2v10zm-38-28v10h-2v-10zm40 2c0 1.103-.897 2-2 2h-4-4.556c.344-.591.556-1.268.556-2s-.212-1.409-.556-2h8.556c1.103 0 2 .897 2 2zm0 14h-27-1-12-2v-4h23 1 12 6zm-40 6c-1.103 0-2-.897-2-2s.897-2 2-2h8.556c-.344.591-.556 1.268-.556 2s.212 1.409.556 2h-4.556zm25.444-16h.556 8c1.103 0 2 .897 2 2s-.897 2-2 2h-8.556c.344-.591.556-1.268.556-2s-.212-1.409-.556-2zm12 4c.344-.591.556-1.268.556-2s-.212-1.409-.556-2h.556c.732 0 1.409-.212 2-.556v4.556zm-9.444-8c0 1.103-.897 2-2 2h-1-3-2v2h2c1.103 0 2 .897 2 2s-.897 2-2 2h-1-3v-10h7 1c1.103 0 2 .897 2 2zm-12 8h-6v-10h6zm-8 0h-6v-10h6zm-10 13.444c.591.344 1.268.556 2 .556h.556c-.344.591-.556 1.268-.556 2s.212 1.409.556 2h-2.556zm4 2.556c0-1.103.897-2 2-2h8 .556c-.344.591-.556 1.268-.556 2s.212 1.409.556 2h-8.556c-1.103 0-2-.897-2-2zm12 0c0-1.103.897-2 2-2h2v-2h-2-3-1c-1.103 0-2-.897-2-2s.897-2 2-2h1 7v10h-3-1c-1.103 0-2-.897-2-2zm8-8h6v10h-6zm8 0h6v10h-6zm-30.998-24 19.277-13.77c.424-.301 1.018-.301 1.441 0l19.278 13.77zm16.951-17.024c1.789-1.275 4.305-1.275 6.094 0l23.833 17.024h-3.442l-21.555-15.396c-1.104-.789-2.662-.789-3.766 0l-21.555 15.396h-3.442zm-19.953 23.024v28h-4v-28zm52 34h-58v-3c0-.552.448-1 1-1h13 12 1 30c.552 0 1 .448 1 1zm-2-6h-4v-28h4z"/><path d="m37 51h2v2h-2z"/><path d="m37 47h2v2h-2z"/><path d="m45 47h2v2h-2z"/><path d="m45 51h2v2h-2z"/><path d="m25 33h2v2h-2z"/><path d="m25 29h2v2h-2z"/><path d="m17 33h2v2h-2z"/><path d="m17 29h2v2h-2z"/></g></g></svg>